# Blender v3.4.1 OBJ File: 'triangulate.blend'
# www.blender.org
mtllib planes.mtl
o Plane.005
v 1.219901 1.244405 1.892527
v 3.949387 1.244405 0.898063
v 6.678873 1.244405 1.892527
v 7.673337 1.244405 4.622013
v 6.678873 1.244405 7.351499
v 3.949387 1.244405 8.345963
v 1.219901 1.244405 7.351499
v 0.225437 1.244405 4.622013
v -5.622720 1.396371 2.350793
v -4.575446 1.396371 1.729529
v -3.332917 1.396371 1.516524
v -2.090389 1.396371 1.729529
v -1.043115 1.396371 2.350793
v -0.421851 1.396371 3.398067
v -0.208846 1.396371 4.640595
v -0.421851 1.396371 5.883123
v -1.043115 1.396371 6.930397
v -2.090389 1.396371 7.551661
v -3.332917 1.396371 7.764667
v -4.575446 1.396371 7.551661
v -5.622720 1.396371 6.930397
v -6.243984 1.396371 5.883123
v -6.456988 1.396371 4.640595
v -6.243984 1.396371 3.398067
v 1.652542 2.236864 -4.889654
v -1.751538 2.236872 -4.919469
v -2.831819 2.236871 -1.691236
v -0.095409 2.236872 0.333749
v 2.676089 2.236863 -1.642978
vt 0.000000 0.000000
vt 0.000000 0.000000
vt 0.000000 0.000000
vt 0.000000 0.000000
vt 0.000000 0.000000
vt 0.000000 0.000000
vt 0.000000 0.000000
vt 0.000000 0.000000
vt 0.000000 0.000000
vt 0.000000 0.000000
vt 0.000000 0.000000
vt 0.000000 0.000000
vt 0.000000 0.000000
vt 0.000000 0.000000
vt 0.000000 0.000000
vt 0.000000 0.000000
vt 0.000000 0.000000
vt 0.000000 0.000000
vt 0.000000 0.000000
vt 0.000000 0.000000
vt 0.000000 0.000000
vt 0.000000 0.000000
vt 0.000000 0.000000
vt 0.000000 0.000000
vt 0.000000 0.000000
vt 0.000000 0.000000
vt 0.000000 0.000000
vt 0.000000 0.000000
vt 0.000000 0.000000
vn -0.0000 1.0000 0.0000
usemtl Default_OBJ
s 1
f 1/1/1 8/2/1 7/3/1 6/4/1 5/5/1 4/6/1 3/7/1 2/8/1
f 9/9/1 24/10/1 23/11/1 22/12/1 21/13/1 20/14/1 19/15/1 18/16/1 17/17/1 16/18/1 15/19/1 14/20/1 13/21/1 12/22/1 11/23/1 10/24/1
f 25/25/1 26/26/1 27/27/1 28/28/1 29/29/1
