# Blender 4.0.2
# www.blender.org
mtllib quartersphere.mtl
o Sphere
v -1.006047 3.977650 -0.000000
v -1.505656 3.478041 -0.000000
v -1.776043 2.825271 -0.000000
v -1.810838 2.471994 -0.000000
v 0.000000 4.282831 -0.000000
v 0.353277 4.248036 -0.000000
v 0.692977 4.144989 -0.000000
v 1.006047 3.977650 -0.000000
v 1.280455 3.752449 -0.000000
v 1.505656 3.478041 -0.000000
v 1.672995 3.164971 -0.000000
v 1.776042 2.825271 -0.000000
v 1.810836 2.471994 0.000001
v 0.346489 4.248036 0.068921
v 0.679662 4.144989 0.135193
v 0.986716 3.977650 0.196270
v 1.255852 3.752449 0.249805
v 1.476725 3.478041 0.293739
v 1.640849 3.164971 0.326385
v 1.741916 2.825271 0.346489
v 1.776041 2.471994 0.353277
v 0.326385 4.248036 0.135193
v 0.640228 4.144989 0.265191
v 0.929466 3.977650 0.384998
v 1.182986 3.752449 0.490009
v 1.391044 3.478041 0.576190
v 1.545646 3.164971 0.640228
v 1.640849 2.825271 0.679662
v 1.672994 2.471994 0.692978
v 0.293739 4.248036 0.196270
v 0.576190 4.144989 0.384998
v 0.836497 3.977650 0.558930
v 1.064660 3.752449 0.711383
v 1.251907 3.478041 0.836498
v 1.391045 3.164971 0.929466
v 1.476725 2.825271 0.986717
v 1.505655 2.471994 1.006047
v 0.249804 4.248036 0.249804
v 0.490009 4.144989 0.490009
v 0.711382 3.977650 0.711383
v 0.905419 3.752449 0.905419
v 1.064659 3.478041 1.064660
v 1.182986 3.164971 1.182986
v 1.255851 2.825271 1.255852
v 1.280454 2.471994 1.280455
v 0.196270 4.248036 0.293739
v 0.384997 4.144989 0.576190
v 0.558929 3.977650 0.836498
v 0.711383 3.752449 1.064660
v 0.836497 3.478041 1.251907
v 0.929466 3.164971 1.391045
v 0.986716 2.825271 1.476725
v 1.006046 2.471994 1.505656
v 0.135193 4.248036 0.326385
v 0.265191 4.144989 0.640228
v 0.384997 3.977650 0.929466
v 0.490009 3.752449 1.182986
v 0.576189 3.478041 1.391045
v 0.640227 3.164971 1.545646
v 0.679661 2.825271 1.640849
v 0.692976 2.471994 1.672995
v 0.068921 4.248036 0.346489
v 0.135193 4.144989 0.679662
v 0.196270 3.977650 0.986716
v 0.249804 3.752449 1.255852
v 0.293739 3.478041 1.476725
v 0.326385 3.164971 1.640849
v 0.346488 2.825271 1.741916
v 0.353276 2.471994 1.776041
v 0.000000 4.248036 0.353277
v 0.000000 4.144989 0.692977
v 0.000000 3.977650 1.006047
v 0.000000 3.752449 1.280455
v 0.000000 3.478041 1.505656
v 0.000000 3.164971 1.672995
v 0.000000 2.825271 1.776042
v -0.000001 2.471994 1.810836
v -0.068921 4.248036 0.346489
v -0.135193 4.144989 0.679662
v -0.196270 3.977650 0.986716
v -0.249804 3.752449 1.255852
v -0.293739 3.478041 1.476725
v -0.326385 3.164971 1.640849
v -0.346489 2.825271 1.741916
v -0.353277 2.471994 1.776041
v -0.135193 4.248036 0.326385
v -0.265191 4.144989 0.640228
v -0.384998 3.977650 0.929466
v -0.490009 3.752449 1.182986
v -0.576190 3.478041 1.391044
v -0.640227 3.164971 1.545646
v -0.679662 2.825271 1.640849
v -0.692978 2.471994 1.672994
v -0.196270 4.248036 0.293739
v -0.384998 4.144989 0.576190
v -0.558930 3.977650 0.836497
v -0.711383 3.752449 1.064660
v -0.836498 3.478041 1.251907
v -0.929466 3.164971 1.391045
v -0.986716 2.825271 1.476725
v -1.006047 2.471994 1.505654
v -0.249804 4.248036 0.249804
v -0.490009 4.144989 0.490009
v -0.711383 3.977650 0.711382
v -0.905419 3.752449 0.905419
v -1.064659 3.478041 1.064659
v -1.182986 3.164971 1.182986
v -1.255852 2.825271 1.255851
v -1.280455 2.471994 1.280454
v -0.293739 4.248036 0.196270
v -0.576189 4.144989 0.384998
v -0.836497 3.977650 0.558929
v -1.064660 3.752449 0.711383
v -1.251907 3.478041 0.836497
v -1.391044 3.164971 0.929466
v -1.476725 2.825271 0.986716
v -1.505655 2.471994 1.006046
v -0.326385 4.248036 0.135193
v -0.640227 4.144989 0.265191
v -0.929466 3.977650 0.384997
v -1.182986 3.752449 0.490009
v -1.391044 3.478041 0.576189
v -1.545646 3.164971 0.640227
v -1.640849 2.825271 0.679661
v -1.672994 2.471994 0.692976
v -0.346488 4.248036 0.068921
v -0.679662 4.144989 0.135193
v -0.986715 3.977650 0.196270
v -1.255852 3.752449 0.249804
v -1.476725 3.478041 0.293739
v -1.640849 3.164971 0.326385
v -1.741916 2.825271 0.346488
v -1.776041 2.471994 0.353276
v -0.353276 4.248036 -0.000000
v -0.692977 4.144989 -0.000000
v -1.280455 3.752449 -0.000000
v -1.672995 3.164971 -0.000000
vn 0.9904 0.0975 0.0975
vn 0.0980 0.9951 0.0096
vn 0.2902 0.9565 0.0286
vn 0.4709 0.8810 0.0464
vn 0.6332 0.7715 0.0624
vn 0.7708 0.6326 0.0759
vn 0.8786 0.4696 0.0865
vn 0.9527 0.2890 0.0938
vn 0.7412 0.6326 0.2248
vn 0.8448 0.4696 0.2563
vn 0.9161 0.2890 0.2779
vn 0.9524 0.0975 0.2889
vn 0.0942 0.9951 0.0286
vn 0.2790 0.9565 0.0846
vn 0.4528 0.8810 0.1374
vn 0.6088 0.7715 0.1847
vn 0.0869 0.9951 0.0464
vn 0.2571 0.9565 0.1374
vn 0.4173 0.8810 0.2230
vn 0.5611 0.7715 0.2999
vn 0.6831 0.6326 0.3651
vn 0.7786 0.4696 0.4162
vn 0.8443 0.2890 0.4513
vn 0.8777 0.0975 0.4691
vn 0.5987 0.6326 0.4913
vn 0.6825 0.4696 0.5601
vn 0.7400 0.2890 0.6073
vn 0.7693 0.0975 0.6314
vn 0.0761 0.9951 0.0625
vn 0.2254 0.9565 0.1850
vn 0.3658 0.8810 0.3002
vn 0.4918 0.7715 0.4036
vn 0.1850 0.9565 0.2254
vn 0.3002 0.8810 0.3658
vn 0.4036 0.7715 0.4918
vn 0.4913 0.6326 0.5987
vn 0.5601 0.4696 0.6825
vn 0.6073 0.2890 0.7400
vn 0.6314 0.0975 0.7693
vn 0.0625 0.9951 0.0761
vn 0.4162 0.4696 0.7786
vn 0.4513 0.2890 0.8443
vn 0.4691 0.0975 0.8777
vn 0.0464 0.9951 0.0869
vn 0.1374 0.9565 0.2571
vn 0.2230 0.8810 0.4173
vn 0.2999 0.7715 0.5611
vn 0.3651 0.6326 0.6831
vn 0.1374 0.8810 0.4528
vn 0.1847 0.7715 0.6088
vn 0.2248 0.6326 0.7412
vn 0.2563 0.4696 0.8448
vn 0.2779 0.2890 0.9161
vn 0.2889 0.0975 0.9524
vn 0.0286 0.9951 0.0942
vn 0.0846 0.9565 0.2790
vn 0.0938 0.2890 0.9527
vn 0.0975 0.0975 0.9904
vn 0.0097 0.9951 0.0980
vn 0.0286 0.9565 0.2902
vn 0.0464 0.8810 0.4709
vn 0.0624 0.7715 0.6332
vn 0.0759 0.6326 0.7708
vn 0.0865 0.4696 0.8786
vn -0.0464 0.8810 0.4709
vn -0.0624 0.7715 0.6332
vn -0.0759 0.6326 0.7708
vn -0.0865 0.4696 0.8786
vn -0.0938 0.2890 0.9527
vn -0.0975 0.0975 0.9904
vn -0.0097 0.9951 0.0980
vn -0.0286 0.9565 0.2902
vn -0.2779 0.2890 0.9161
vn -0.2889 0.0975 0.9524
vn -0.0286 0.9951 0.0942
vn -0.0846 0.9565 0.2790
vn -0.1374 0.8810 0.4528
vn -0.1847 0.7715 0.6088
vn -0.2248 0.6326 0.7412
vn -0.2563 0.4696 0.8448
vn -0.2999 0.7715 0.5611
vn -0.3651 0.6326 0.6831
vn -0.4162 0.4696 0.7786
vn -0.4513 0.2890 0.8443
vn -0.4692 0.0975 0.8777
vn -0.0464 0.9951 0.0869
vn -0.1374 0.9566 0.2571
vn -0.2231 0.8810 0.4173
vn -0.6314 0.0975 0.7693
vn -0.0625 0.9951 0.0761
vn -0.1850 0.9565 0.2254
vn -0.3002 0.8810 0.3658
vn -0.4036 0.7715 0.4918
vn -0.4913 0.6326 0.5987
vn -0.5601 0.4696 0.6825
vn -0.6073 0.2890 0.7400
vn -0.4918 0.7715 0.4036
vn -0.5987 0.6326 0.4913
vn -0.6825 0.4696 0.5601
vn -0.7400 0.2890 0.6073
vn -0.7693 0.0975 0.6314
vn -0.0761 0.9951 0.0625
vn -0.2254 0.9565 0.1850
vn -0.3658 0.8810 0.3002
vn -0.8777 0.0975 0.4691
vn -0.0869 0.9951 0.0464
vn -0.2571 0.9565 0.1374
vn -0.4173 0.8810 0.2231
vn -0.5611 0.7715 0.2999
vn -0.6831 0.6326 0.3651
vn -0.7786 0.4696 0.4162
vn -0.8443 0.2890 0.4513
vn -0.7412 0.6326 0.2248
vn -0.8448 0.4696 0.2563
vn -0.9161 0.2890 0.2779
vn -0.9524 0.0975 0.2889
vn -0.0942 0.9951 0.0286
vn -0.2790 0.9565 0.0846
vn -0.4528 0.8810 0.1374
vn -0.6088 0.7715 0.1847
vn -0.2902 0.9565 0.0286
vn -0.4709 0.8810 0.0464
vn -0.6332 0.7715 0.0624
vn -0.7708 0.6326 0.0759
vn -0.8786 0.4696 0.0865
vn -0.9527 0.2890 0.0938
vn -0.9904 0.0975 0.0976
vn -0.0980 0.9951 0.0096
vt 0.250000 0.500000
vt 0.250000 0.562500
vt 0.218750 0.562500
vt 0.218750 0.500000
vt 0.250000 0.937500
vt 0.234375 1.000000
vt 0.218750 0.937500
vt 0.250000 0.875000
vt 0.218750 0.875000
vt 0.250000 0.812500
vt 0.218750 0.812500
vt 0.250000 0.750000
vt 0.218750 0.750000
vt 0.250000 0.687500
vt 0.218750 0.687500
vt 0.250000 0.625000
vt 0.218750 0.625000
vt 0.187500 0.750000
vt 0.187500 0.687500
vt 0.187500 0.625000
vt 0.187500 0.562500
vt 0.187500 0.500000
vt 0.203125 1.000000
vt 0.187500 0.937500
vt 0.187500 0.875000
vt 0.187500 0.812500
vt 0.171875 1.000000
vt 0.156250 0.937500
vt 0.156250 0.875000
vt 0.156250 0.812500
vt 0.156250 0.750000
vt 0.156250 0.687500
vt 0.156250 0.625000
vt 0.156250 0.562500
vt 0.156250 0.500000
vt 0.125000 0.750000
vt 0.125000 0.687500
vt 0.125000 0.625000
vt 0.125000 0.562500
vt 0.125000 0.500000
vt 0.140625 1.000000
vt 0.125000 0.937500
vt 0.125000 0.875000
vt 0.125000 0.812500
vt 0.093750 0.937500
vt 0.093750 0.875000
vt 0.093750 0.812500
vt 0.093750 0.750000
vt 0.093750 0.687500
vt 0.093750 0.625000
vt 0.093750 0.562500
vt 0.093750 0.500000
vt 0.109375 1.000000
vt 0.062500 0.687500
vt 0.062500 0.625000
vt 0.062500 0.562500
vt 0.062500 0.500000
vt 0.078125 1.000000
vt 0.062500 0.937500
vt 0.062500 0.875000
vt 0.062500 0.812500
vt 0.062500 0.750000
vt 0.031250 0.875000
vt 0.031250 0.812500
vt 0.031250 0.750000
vt 0.031250 0.687500
vt 0.031250 0.625000
vt 0.031250 0.562500
vt 0.031250 0.500000
vt 0.046875 1.000000
vt 0.031250 0.937500
vt 0.000000 0.625000
vt 0.000000 0.562500
vt 0.000000 0.500000
vt 0.015625 1.000000
vt 0.000000 0.937500
vt 0.000000 0.875000
vt 0.000000 0.812500
vt 0.000000 0.750000
vt 0.000000 0.687500
vt 1.000000 0.812500
vt 1.000000 0.875000
vt 0.968750 0.875000
vt 0.968750 0.812500
vt 1.000000 0.750000
vt 0.968750 0.750000
vt 1.000000 0.687500
vt 0.968750 0.687500
vt 1.000000 0.625000
vt 0.968750 0.625000
vt 1.000000 0.562500
vt 0.968750 0.562500
vt 1.000000 0.500000
vt 0.968750 0.500000
vt 1.000000 0.937500
vt 0.984375 1.000000
vt 0.968750 0.937500
vt 0.937500 0.625000
vt 0.937500 0.562500
vt 0.937500 0.500000
vt 0.953125 1.000000
vt 0.937500 0.937500
vt 0.937500 0.875000
vt 0.937500 0.812500
vt 0.937500 0.750000
vt 0.937500 0.687500
vt 0.906250 0.812500
vt 0.906250 0.750000
vt 0.906250 0.687500
vt 0.906250 0.625000
vt 0.906250 0.562500
vt 0.906250 0.500000
vt 0.921875 1.000000
vt 0.906250 0.937500
vt 0.906250 0.875000
vt 0.875000 0.562500
vt 0.875000 0.500000
vt 0.890625 1.000000
vt 0.875000 0.937500
vt 0.875000 0.875000
vt 0.875000 0.812500
vt 0.875000 0.750000
vt 0.875000 0.687500
vt 0.875000 0.625000
vt 0.843750 0.812500
vt 0.843750 0.750000
vt 0.843750 0.687500
vt 0.843750 0.625000
vt 0.843750 0.562500
vt 0.843750 0.500000
vt 0.859375 1.000000
vt 0.843750 0.937500
vt 0.843750 0.875000
vt 0.812500 0.562500
vt 0.812500 0.500000
vt 0.828125 1.000000
vt 0.812500 0.937500
vt 0.812500 0.875000
vt 0.812500 0.812500
vt 0.812500 0.750000
vt 0.812500 0.687500
vt 0.812500 0.625000
vt 0.781250 0.750000
vt 0.781250 0.687500
vt 0.781250 0.625000
vt 0.781250 0.562500
vt 0.781250 0.500000
vt 0.796875 1.000000
vt 0.781250 0.937500
vt 0.781250 0.875000
vt 0.781250 0.812500
vt 0.750000 0.937500
vt 0.750000 0.875000
vt 0.750000 0.812500
vt 0.750000 0.750000
vt 0.750000 0.687500
vt 0.750000 0.625000
vt 0.750000 0.562500
vt 0.750000 0.500000
vt 0.765625 1.000000
s 0
f 13/1/1 12/2/1 20/3/1 21/4/1
f 6/5/2 5/6/2 14/7/2
f 7/8/3 6/5/3 14/7/3 15/9/3
f 8/10/4 7/8/4 15/9/4 16/11/4
f 9/12/5 8/10/5 16/11/5 17/13/5
f 10/14/6 9/12/6 17/13/6 18/15/6
f 11/16/7 10/14/7 18/15/7 19/17/7
f 12/2/8 11/16/8 19/17/8 20/3/8
f 18/15/9 17/13/9 25/18/9 26/19/9
f 19/17/10 18/15/10 26/19/10 27/20/10
f 20/3/11 19/17/11 27/20/11 28/21/11
f 21/4/12 20/3/12 28/21/12 29/22/12
f 14/7/13 5/23/13 22/24/13
f 15/9/14 14/7/14 22/24/14 23/25/14
f 16/11/15 15/9/15 23/25/15 24/26/15
f 17/13/16 16/11/16 24/26/16 25/18/16
f 22/24/17 5/27/17 30/28/17
f 23/25/18 22/24/18 30/28/18 31/29/18
f 24/26/19 23/25/19 31/29/19 32/30/19
f 25/18/20 24/26/20 32/30/20 33/31/20
f 26/19/21 25/18/21 33/31/21 34/32/21
f 27/20/22 26/19/22 34/32/22 35/33/22
f 28/21/23 27/20/23 35/33/23 36/34/23
f 29/22/24 28/21/24 36/34/24 37/35/24
f 34/32/25 33/31/25 41/36/25 42/37/25
f 35/33/26 34/32/26 42/37/26 43/38/26
f 36/34/27 35/33/27 43/38/27 44/39/27
f 37/35/28 36/34/28 44/39/28 45/40/28
f 30/28/29 5/41/29 38/42/29
f 31/29/30 30/28/30 38/42/30 39/43/30
f 32/30/31 31/29/31 39/43/31 40/44/31
f 33/31/32 32/30/32 40/44/32 41/36/32
f 39/43/33 38/42/33 46/45/33 47/46/33
f 40/44/34 39/43/34 47/46/34 48/47/34
f 41/36/35 40/44/35 48/47/35 49/48/35
f 42/37/36 41/36/36 49/48/36 50/49/36
f 43/38/37 42/37/37 50/49/37 51/50/37
f 44/39/38 43/38/38 51/50/38 52/51/38
f 45/40/39 44/39/39 52/51/39 53/52/39
f 38/42/40 5/53/40 46/45/40
f 51/50/41 50/49/41 58/54/41 59/55/41
f 52/51/42 51/50/42 59/55/42 60/56/42
f 53/52/43 52/51/43 60/56/43 61/57/43
f 46/45/44 5/58/44 54/59/44
f 47/46/45 46/45/45 54/59/45 55/60/45
f 48/47/46 47/46/46 55/60/46 56/61/46
f 49/48/47 48/47/47 56/61/47 57/62/47
f 50/49/48 49/48/48 57/62/48 58/54/48
f 56/61/49 55/60/49 63/63/49 64/64/49
f 57/62/50 56/61/50 64/64/50 65/65/50
f 58/54/51 57/62/51 65/65/51 66/66/51
f 59/55/52 58/54/52 66/66/52 67/67/52
f 60/56/53 59/55/53 67/67/53 68/68/53
f 61/57/54 60/56/54 68/68/54 69/69/54
f 54/59/55 5/70/55 62/71/55
f 55/60/56 54/59/56 62/71/56 63/63/56
f 68/68/57 67/67/57 75/72/57 76/73/57
f 69/69/58 68/68/58 76/73/58 77/74/58
f 62/71/59 5/75/59 70/76/59
f 63/63/60 62/71/60 70/76/60 71/77/60
f 64/64/61 63/63/61 71/77/61 72/78/61
f 65/65/62 64/64/62 72/78/62 73/79/62
f 66/66/63 65/65/63 73/79/63 74/80/63
f 67/67/64 66/66/64 74/80/64 75/72/64
f 72/81/65 71/82/65 79/83/65 80/84/65
f 73/85/66 72/81/66 80/84/66 81/86/66
f 74/87/67 73/85/67 81/86/67 82/88/67
f 75/89/68 74/87/68 82/88/68 83/90/68
f 76/91/69 75/89/69 83/90/69 84/92/69
f 77/93/70 76/91/70 84/92/70 85/94/70
f 70/95/71 5/96/71 78/97/71
f 71/82/72 70/95/72 78/97/72 79/83/72
f 84/92/73 83/90/73 91/98/73 92/99/73
f 85/94/74 84/92/74 92/99/74 93/100/74
f 78/97/75 5/101/75 86/102/75
f 79/83/76 78/97/76 86/102/76 87/103/76
f 80/84/77 79/83/77 87/103/77 88/104/77
f 81/86/78 80/84/78 88/104/78 89/105/78
f 82/88/79 81/86/79 89/105/79 90/106/79
f 83/90/80 82/88/80 90/106/80 91/98/80
f 89/105/81 88/104/81 96/107/81 97/108/81
f 90/106/82 89/105/82 97/108/82 98/109/82
f 91/98/83 90/106/83 98/109/83 99/110/83
f 92/99/84 91/98/84 99/110/84 100/111/84
f 93/100/85 92/99/85 100/111/85 101/112/85
f 86/102/86 5/113/86 94/114/86
f 87/103/87 86/102/87 94/114/87 95/115/87
f 88/104/88 87/103/88 95/115/88 96/107/88
f 101/112/89 100/111/89 108/116/89 109/117/89
f 94/114/90 5/118/90 102/119/90
f 95/115/91 94/114/91 102/119/91 103/120/91
f 96/107/92 95/115/92 103/120/92 104/121/92
f 97/108/93 96/107/93 104/121/93 105/122/93
f 98/109/94 97/108/94 105/122/94 106/123/94
f 99/110/95 98/109/95 106/123/95 107/124/95
f 100/111/96 99/110/96 107/124/96 108/116/96
f 105/122/97 104/121/97 112/125/97 113/126/97
f 106/123/98 105/122/98 113/126/98 114/127/98
f 107/124/99 106/123/99 114/127/99 115/128/99
f 108/116/100 107/124/100 115/128/100 116/129/100
f 109/117/101 108/116/101 116/129/101 117/130/101
f 102/119/102 5/131/102 110/132/102
f 103/120/103 102/119/103 110/132/103 111/133/103
f 104/121/104 103/120/104 111/133/104 112/125/104
f 117/130/105 116/129/105 124/134/105 125/135/105
f 110/132/106 5/136/106 118/137/106
f 111/133/107 110/132/107 118/137/107 119/138/107
f 112/125/108 111/133/108 119/138/108 120/139/108
f 113/126/109 112/125/109 120/139/109 121/140/109
f 114/127/110 113/126/110 121/140/110 122/141/110
f 115/128/111 114/127/111 122/141/111 123/142/111
f 116/129/112 115/128/112 123/142/112 124/134/112
f 122/141/113 121/140/113 129/143/113 130/144/113
f 123/142/114 122/141/114 130/144/114 131/145/114
f 124/134/115 123/142/115 131/145/115 132/146/115
f 125/135/116 124/134/116 132/146/116 133/147/116
f 118/137/117 5/148/117 126/149/117
f 119/138/118 118/137/118 126/149/118 127/150/118
f 120/139/119 119/138/119 127/150/119 128/151/119
f 121/140/120 120/139/120 128/151/120 129/143/120
f 127/150/121 126/149/121 134/152/121 135/153/121
f 128/151/122 127/150/122 135/153/122 1/154/122
f 129/143/123 128/151/123 1/154/123 136/155/123
f 130/144/124 129/143/124 136/155/124 2/156/124
f 131/145/125 130/144/125 2/156/125 137/157/125
f 132/146/126 131/145/126 137/157/126 3/158/126
f 133/147/127 132/146/127 3/158/127 4/159/127
f 126/149/128 5/160/128 134/152/128
