# Blender 4.1.1
# www.blender.org
mtllib dude.mtl
o Cube
v 1.000000 -1.000000 0.723109
v 1.000000 2.975546 0.723109
v 1.000000 -1.000000 -0.723109
v 1.000000 2.975546 -0.723109
v 0.772126 0.987773 -0.703071
v 0.772126 0.987773 0.479458
v 1.000000 1.981659 -0.723109
v 1.000000 1.981659 0.723109
v 0.772126 -0.006114 -0.703071
v 0.772126 -0.006114 0.479458
v 2.000000 2.975546 -0.513975
v 2.000000 2.975546 0.513975
v 2.000000 1.981659 -0.513975
v 2.000000 1.981659 0.513975
v 3.000000 2.975546 -0.513975
v 3.000000 2.975546 0.513975
v 3.000000 1.981659 -0.513975
v 3.000000 1.981659 0.513975
v 2.000000 -0.018341 -0.513975
v 2.000000 -0.018341 0.513975
v 3.000000 -0.018341 -0.513975
v 3.000000 -0.018341 0.513975
v 0.000000 -1.000000 -0.723109
v 0.000000 2.975546 -0.723109
v 0.000000 -1.000000 0.723109
v 0.000000 2.975546 0.723109
v 0.000000 0.987773 0.479458
v 0.000000 0.987773 -0.703071
v 0.000000 1.981659 0.723109
v 0.000000 1.981659 -0.723109
v 0.000000 -0.006114 -0.703071
v 0.000000 -0.006114 0.479458
v 2.475796 -5.000000 1.600948
v 2.475796 -5.000000 -0.643817
v 0.837885 -5.000000 1.600948
v 0.837885 -5.000000 -0.643817
v 0.000000 3.975546 -1.057698
v 1.321536 3.975546 -1.057698
v 1.321536 3.975546 1.057698
v 0.000000 3.975546 1.057698
v 0.000000 5.975546 -1.057698
v 1.321536 5.975546 -1.057698
v 1.321536 5.975546 1.057698
v 0.000000 5.975546 1.057698
v -1.000000 -1.000000 0.723109
v -1.000000 2.975546 0.723109
v -1.000000 -1.000000 -0.723109
v -1.000000 2.975546 -0.723109
v -0.772126 0.987773 -0.703071
v -0.772126 0.987773 0.479458
v -1.000000 1.981659 -0.723109
v -1.000000 1.981659 0.723109
v -0.772126 -0.006114 -0.703071
v -0.772126 -0.006114 0.479458
v -2.000000 2.975546 -0.513975
v -2.000000 2.975546 0.513975
v -2.000000 1.981659 -0.513975
v -2.000000 1.981659 0.513975
v -3.000000 2.975546 -0.513975
v -3.000000 2.975546 0.513975
v -3.000000 1.981659 -0.513975
v -3.000000 1.981659 0.513975
v -2.000000 -0.018341 -0.513975
v -2.000000 -0.018341 0.513975
v -3.000000 -0.018341 -0.513975
v -3.000000 -0.018341 0.513975
v -2.475796 -5.000000 1.600948
v -2.475796 -5.000000 -0.643817
v -0.837885 -5.000000 1.600948
v -0.837885 -5.000000 -0.643817
v -1.321536 3.975546 -1.057698
v -1.321536 3.975546 1.057698
v -1.321536 5.975546 -1.057698
v -1.321536 5.975546 1.057698
vn -0.0000 -0.0000 -1.0000
vn 0.2047 -0.0000 -0.9788
vn -0.0000 0.2144 0.9768
vn -0.0000 -0.3173 0.9483
vn 1.0000 -0.0000 -0.0000
vn 0.9747 -0.2235 -0.0000
vn -0.0000 -0.0202 -0.9998
vn -0.0000 0.0202 -0.9998
vn 0.9747 0.2235 -0.0000
vn -0.0000 -0.0000 1.0000
vn -0.0000 -1.0000 -0.0000
vn 0.2047 -0.0000 0.9788
vn -0.0000 1.0000 -0.0000
vn -1.0000 -0.0000 -0.0000
vn -0.0000 0.2381 0.9712
vn -0.0000 -0.2381 0.9712
vn -0.0000 -0.3173 -0.9483
vn -0.9788 -0.2050 -0.0000
vn 0.9382 0.3461 -0.0000
vn -0.0000 -0.0198 -0.9998
vn 0.9520 -0.3061 -0.0000
vn -0.2047 -0.0000 -0.9788
vn -0.9747 -0.2235 -0.0000
vn -0.9747 0.2235 -0.0000
vn -0.2047 -0.0000 0.9788
vn 0.9788 -0.2050 -0.0000
vn -0.9382 0.3461 -0.0000
vn -0.9520 -0.3061 -0.0000
vt 0.562500 0.375000
vt 0.625000 0.375000
vt 0.625000 0.500000
vt 0.562500 0.500000
vt 0.375000 0.750000
vt 0.375000 0.875000
vt 0.625000 0.875000
vt 0.625000 0.750000
vt 0.437500 0.500000
vt 0.500000 0.500000
vt 0.500000 0.750000
vt 0.437500 0.750000
vt 0.437500 0.375000
vt 0.500000 0.375000
vt 0.562500 0.750000
vt 0.375000 0.375000
vt 0.375000 0.500000
vt 0.437500 0.875000
vt 0.562500 0.875000
vt 0.500000 0.875000
vt 0.250000 0.500000
vt 0.250000 0.750000
vt 0.750000 0.500000
vt 0.750000 0.750000
s 0
f 30/1/1 24/2/1 4/3/1 7/4/1
f 7/4/2 4/3/2 11/3/2 13/4/2
f 1/5/3 25/6/3 35/6/3 33/5/3
f 26/7/4 2/8/4 39/8/4 40/7/4
f 9/9/5 5/10/5 6/11/5 10/12/5
f 31/13/1 28/14/1 5/10/1 9/9/1
f 5/10/6 7/4/6 8/15/6 6/11/6
f 28/14/7 30/1/7 7/4/7 5/10/7
f 23/16/8 31/13/8 9/9/8 3/17/8
f 3/17/9 9/9/9 10/12/9 1/5/9
f 12/8/10 14/15/10 18/15/10 16/8/10
f 8/15/11 7/4/11 13/4/11 14/15/11
f 2/8/12 8/15/12 14/15/12 12/8/12
f 4/3/13 2/8/13 12/8/13 11/3/13
f 17/4/5 15/3/5 16/8/5 18/15/5
f 11/3/13 12/8/13 16/8/13 15/3/13
f 13/4/1 17/4/1 21/4/1 19/4/1
f 13/4/1 11/3/1 15/3/1 17/4/1
f 20/15/11 19/4/11 21/4/11 22/15/11
f 17/4/5 18/15/5 22/15/5 21/4/5
f 14/15/14 13/4/14 19/4/14 20/15/14
f 18/15/10 14/15/10 20/15/10 22/15/10
f 1/5/15 10/12/15 32/18/15 25/6/15
f 6/11/16 8/15/16 29/19/16 27/20/16
f 10/12/10 6/11/10 27/20/10 32/18/10
f 4/3/17 24/2/17 37/2/17 38/3/17
f 8/15/10 2/8/10 26/7/10 29/19/10
f 36/21/11 34/17/11 33/5/11 35/22/11
f 25/22/18 23/21/18 36/21/18 35/22/18
f 3/17/19 1/5/19 33/5/19 34/17/19
f 23/16/20 3/17/20 34/17/20 36/16/20
f 38/3/1 37/2/1 41/2/1 42/3/1
f 2/8/21 4/3/21 38/3/21 39/8/21
f 42/3/13 41/23/13 44/24/13 43/8/13
f 39/8/5 38/3/5 42/3/5 43/8/5
f 40/7/10 39/8/10 43/8/10 44/7/10
f 30/1/1 51/4/1 48/3/1 24/2/1
f 51/4/22 57/4/22 55/3/22 48/3/22
f 45/5/3 67/5/3 69/6/3 25/6/3
f 26/7/4 40/7/4 72/8/4 46/8/4
f 53/9/14 54/12/14 50/11/14 49/10/14
f 31/13/1 53/9/1 49/10/1 28/14/1
f 49/10/23 50/11/23 52/15/23 51/4/23
f 28/14/7 49/10/7 51/4/7 30/1/7
f 23/16/8 47/17/8 53/9/8 31/13/8
f 47/17/24 45/5/24 54/12/24 53/9/24
f 56/8/10 60/8/10 62/15/10 58/15/10
f 52/15/11 58/15/11 57/4/11 51/4/11
f 46/8/25 56/8/25 58/15/25 52/15/25
f 48/3/13 55/3/13 56/8/13 46/8/13
f 61/4/14 62/15/14 60/8/14 59/3/14
f 55/3/13 59/3/13 60/8/13 56/8/13
f 57/4/1 63/4/1 65/4/1 61/4/1
f 57/4/1 61/4/1 59/3/1 55/3/1
f 64/15/11 66/15/11 65/4/11 63/4/11
f 61/4/14 65/4/14 66/15/14 62/15/14
f 58/15/5 64/15/5 63/4/5 57/4/5
f 62/15/10 66/15/10 64/15/10 58/15/10
f 45/5/15 25/6/15 32/18/15 54/12/15
f 50/11/16 27/20/16 29/19/16 52/15/16
f 54/12/10 32/18/10 27/20/10 50/11/10
f 48/3/17 71/3/17 37/2/17 24/2/17
f 52/15/10 29/19/10 26/7/10 46/8/10
f 70/21/11 69/22/11 67/5/11 68/17/11
f 25/22/26 69/22/26 70/21/26 23/21/26
f 47/17/27 68/17/27 67/5/27 45/5/27
f 23/16/20 70/16/20 68/17/20 47/17/20
f 71/3/1 73/3/1 41/2/1 37/2/1
f 46/8/28 72/8/28 71/3/28 48/3/28
f 73/3/13 74/8/13 44/24/13 41/23/13
f 72/8/14 74/8/14 73/3/14 71/3/14
f 40/7/10 44/7/10 74/8/10 72/8/10
